<svg id="Layer_1" data-name="Layer 1" xmlns="http://www.w3.org/2000/svg" viewBox="0 0 1000 1000">
  <g>
    <path d="M76.4,500.1c13.2,51.5,40.8,117.1,95.6,189.6,84.4,111.5,193.9,194.1,314.1,263.4,4.3,2.5,8.7,3.3,13.9,3.3V500.1Z" style="fill: #0370c8"/>
    <path d="M65.6,420c-.1,19.6,2.4,46.9,10.8,80.1H500V43.6c-42.8,0-79.5,11.4-113.8,32.3-30.5,18.6-58.6,40.8-89.9,58.1C234,168.5,166.6,180.7,96.5,180.9c-22.5.1-31.1,8.6-31.1,30.9C65.3,281.2,66.1,350.6,65.6,420Z" style="fill: #33bff0"/>
    <path d="M923.6,500.1c-13.2,51.5-40.8,117.1-95.6,189.6C743.6,801.2,634.1,883.8,513.9,953.1c-4.3,2.5-8.9,3.3-13.9,3.3V500.1Z" style="fill: #0f5094"/>
    <path d="M934.4,420c.1,19.6-2.4,46.9-10.8,80.1H500V43.6c42.6,0,79.5,11.4,113.8,32.3,30.5,18.6,58.6,40.8,89.9,58.1,62.3,34.5,129.7,46.7,199.8,46.9,22.5.1,31.1,8.6,31.1,30.9C934.7,281.2,933.9,350.6,934.4,420Z" style="fill: #0883d9"/>
  </g>
</svg>
