<svg xmlns="http://www.w3.org/2000/svg" viewBox="0 0 2048 2048">
	<path d="M512 768q-80 0-149 30t-122 82-83 123-30 149q0 80 30 149t82 122 122 83 150 30h512v128H512q-106 0-199-40t-162-110-110-163-41-199 40-199 110-162 163-110 199-41q46 0 93 9 40-61 93-110t115-83 132-53 143-19q91 0 175 28t156 78 126 122 84 157q61 4 117 24t104 53 88 78 65 100h-149q-45-60-112-94t-142-34q-18 0-35 2t-35 6q-10-84-49-155t-98-124-135-83-160-30q-70 0-135 21t-119 59-97 91-67 120q-75-35-158-35m1536 384v384h-384v-128h190q-45-60-112-94t-142-34q-59 0-111 20t-95 55-70 85-38 107l-127-22q14-81 54-149t98-118 133-78 156-28q91 0 174 35t146 102v-137zm-448 768q58 0 111-20t95-55 70-85 38-107l127 22q-14 81-54 149t-98 118-133 78-156 28q-91 0-174-35t-146-102v137h-128v-384h384v128h-190q45 60 112 94t142 34"/>
</svg>
