<svg xmlns="http://www.w3.org/2000/svg" width="18" height="18" viewBox="0 0 18 18">
	<g fill="#212121">
		<path d="M12.77 14.959a.501.501 0 0 0-.997-.085c-.058.677-.391 1.137-.97 1.582l-.019.017c-.033.024-.071.034-.104.057v.019A2.5 2.5 0 0 1 9.258 17a2.5 2.5 0 0 1-2.292-1.5h.792a.5.5 0 0 0 0-1h-2a.5.5 0 0 0-.5.5v2a.5.5 0 0 0 1 0v-.696a3.5 3.5 0 0 0 3 1.696c.801 0 1.535-.274 2.124-.726l.005-.003c.024-.018.041-.041.064-.06a3.5 3.5 0 0 0 .415-.378c.007-.008.008-.017.015-.025.519-.577.826-1.107.889-1.85ZM5.26 3.041a.501.501 0 0 0 .997.085c.058-.677.391-1.137.97-1.582l.019-.017c.033-.024.071-.034.104-.057v-.019A2.5 2.5 0 0 1 8.772 1c1.025 0 1.906.617 2.292 1.5h-.792a.5.5 0 0 0 0 1h2a.5.5 0 0 0 .5-.5V1a.5.5 0 0 0-1 0v.696a3.5 3.5 0 0 0-3-1.696c-.801 0-1.535.274-2.124.726l-.005.003c-.024.018-.041.041-.064.06a3.5 3.5 0 0 0-.415.378c-.007.008-.008.017-.015.025-.519.577-.826 1.107-.889 1.85ZM6.5 5.39v7.5H1v-7.5zm.5-1H.5a.5.5 0 0 0-.5.5v8.5a.5.5 0 0 0 .5.5H7a.5.5 0 0 0 .5-.5v-8.5a.5.5 0 0 0-.5-.5"/>
		<path d="M2.25 6.411h1v1.482h-1zm2 0h1v1.482h-1zm-2 2.482h1v1.482h-1zm2 0h1v1.482h-1zM17 5.39v7.5h-5.5v-7.5zm.5-1H11a.5.5 0 0 0-.5.5v8.5a.5.5 0 0 0 .5.5h6.5a.5.5 0 0 0 .5-.5v-8.5a.5.5 0 0 0-.5-.5"/>
		<path d="M12.75 6.411h1v1.482h-1zm2 0h1v1.482h-1zm-2 2.482h1v1.482h-1zm2 0h1v1.482h-1z"/>
	</g>
</svg>
