<svg xmlns="http://www.w3.org/2000/svg" width="40" height="40" fill="none" viewBox="0 0 40 40">
	<path fill="url(#a)" d="M30.956 35.711a2.78 2.78 0 0 0 2.8-2.755q.015-.167 0-.334c-1.09-8.889-6.111-15.955-15.556-15.955S3.289 22.733 2.222 32.644a2.82 2.82 0 0 0 2.511 3.067z"/>
	<path fill="white" d="M18.067 18.756a8.76 8.76 0 0 1-4.734-1.423L18 29.69l4.711-12.267a8.9 8.9 0 0 1-4.644 1.334" opacity=".8"/>
	<path fill="url(#b)" d="M18.067 18.756a8.822 8.822 0 1 0 0-17.645 8.822 8.822 0 0 0 0 17.645"/>
	<path fill="#DFA500" d="M37.756 28.791c0 5.127-5.896 9.622-7.503 10.067a1 1 0 0 1-.546 0c-1.607-.445-7.505-4.958-7.505-10.067v-6.153a.462.462 0 0 1 .511-.511c4.787-.171 3.76-2.223 7.178-2.223s2.394 2.052 7.178 2.223a.463.463 0 0 1 .513.509z"/>
	<path fill="url(#c)" d="M29.893 29.475v-8.63c3.25 0 2.223 1.793 6.667 1.964a.55.55 0 0 1 .511.513v5.982zm0 0H22.89c.342 4.445 5.64 7.86 6.836 8.545l.342.171z"/>
	<path fill="#FFD400" d="M23.229 22.875c4.444-.17 3.418-2.03 6.667-2.03v8.63h-7.007v-6.177c0-.338.169-.423.34-.423m13.842 6.429-7.178.172.171 8.715c1.198-.858 6.496-4.444 7.007-8.887"/>
	<defs>
		<linearGradient id="a" x1="17.987" x2="17.987" y1="14.335" y2="40.418" gradientUnits="userSpaceOnUse">
			<stop offset=".1" stop-color="#54AEF0"/>
			<stop offset="1" stop-color="#1988D9"/>
		</linearGradient>
		<linearGradient id="b" x1="18.067" x2="18.067" y1="-1.049" y2="23.116" gradientUnits="userSpaceOnUse">
			<stop offset=".1" stop-color="#54AEF0"/>
			<stop offset="1" stop-color="#1988D9"/>
		</linearGradient>
		<linearGradient id="c" x1="29.98" x2="29.98" y1="20.844" y2="38.293" gradientUnits="userSpaceOnUse">
			<stop stop-color="#FFD70F"/>
			<stop offset=".12" stop-color="#FC1"/>
			<stop offset=".44" stop-color="#FEB517"/>
			<stop offset=".75" stop-color="#FEA61A"/>
			<stop offset="1" stop-color="#FEA11B"/>
		</linearGradient>
	</defs>
</svg>
