<svg xmlns="http://www.w3.org/2000/svg" width="18" height="18" viewBox="0 0 18 18">
	<g fill="#212121">
		<path d="M18 9a8.95 8.95 0 0 0-1.117-4.34c.387-.44.629-1.011.629-1.643a2.5 2.5 0 0 0-2.5-2.5c-.628 0-1.196.24-1.635.623C12.081.416 10.589 0 8.999 0S5.917.416 4.621 1.14A2.48 2.48 0 0 0 2.986.517a2.5 2.5 0 0 0-2.499 2.5c0 .632.242 1.203.63 1.643A8.96 8.96 0 0 0 .001 9c0 1.594.418 3.089 1.146 4.388a2.48 2.48 0 0 0-.659 1.679 2.5 2.5 0 0 0 2.5 2.5c.656 0 1.247-.258 1.693-.671C5.963 17.599 7.435 18 9.001 18s3.037-.401 4.32-1.104a2.48 2.48 0 0 0 1.693.671 2.5 2.5 0 0 0 2.5-2.5c0-.649-.253-1.234-.659-1.678a8.96 8.96 0 0 0 1.146-4.388Zm-4.383-6.522c.125-.324.36-.589.658-.759a1.5 1.5 0 0 1 .738-.202c.827 0 1.5.673 1.5 1.5 0 .272-.078.523-.205.743a1.5 1.5 0 0 1-1.295.756c-.827 0-1.5-.673-1.5-1.5 0-.19.039-.371.104-.539Zm-10.63-.961c.269 0 .519.077.738.202a1.5 1.5 0 0 1 .762 1.298c0 .827-.673 1.5-1.5 1.5a1.5 1.5 0 0 1-1.294-.756 1.5 1.5 0 0 1-.205-.744c0-.827.673-1.5 1.5-1.5Zm1.417 14.02a1.5 1.5 0 0 1-1.417 1.029 1.492 1.492 0 0 1-1.269-2.292c.181-.29.458-.509.787-.622a1.5 1.5 0 0 1 .482-.086c.827 0 1.5.673 1.5 1.5 0 .165-.033.322-.083.471m10.609 1.029a1.5 1.5 0 0 1-1.417-1.029 1.5 1.5 0 0 1-.083-.471c0-.827.673-1.5 1.5-1.5.17 0 .33.034.482.087a1.505 1.505 0 0 1 1.018 1.414c0 .827-.673 1.5-1.5 1.5Zm0-4a2.5 2.5 0 0 0-2.5 2.5c0 .359.079.698.215 1.007a7.96 7.96 0 0 1-7.456 0c.136-.308.215-.648.215-1.006a2.5 2.5 0 0 0-2.5-2.5c-.368 0-.714.084-1.028.226A7.95 7.95 0 0 1 1 9c0-1.346.337-2.613.927-3.727.323.152.68.244 1.06.244a2.5 2.5 0 0 0 2.5-2.5c0-.386-.095-.746-.25-1.073C6.36 1.343 7.64.999 9.001.999s2.641.343 3.763.944c-.156.326-.25.687-.25 1.073a2.5 2.5 0 0 0 2.5 2.5c.381 0 .737-.092 1.06-.244a7.95 7.95 0 0 1 .927 3.727 7.95 7.95 0 0 1-.959 3.793 2.5 2.5 0 0 0-1.029-.227Z"/>
		<path d="M11.874 10.037H6.125c-.621 0-1.124.503-1.124 1.124v.289c0 .446.159.878.449 1.217.783.917 1.976 1.369 3.548 1.369s2.765-.452 3.55-1.369c.291-.34.45-.772.45-1.219v-.288c0-.621-.503-1.124-1.124-1.124ZM8.998 9.04a2.5 2.5 0 1 0 0-4.998 2.5 2.5 0 0 0 0 4.998"/>
	</g>
</svg>
